<?xml version="1.0" encoding="iso-8859-1"?>
<!-- Generator: Adobe Illustrator 25.2.1, SVG Export Plug-In . SVG Version: 6.00 Build 0)  -->
<svg version="1.1" id="Capa_1" xmlns="http://www.w3.org/2000/svg" xmlns:xlink="http://www.w3.org/1999/xlink" x="0px" y="0px"
	 width="1920px" height="759.269px" viewBox="0 0 1920 759.269" enable-background="new 0 0 1920 759.269" xml:space="preserve">
<g>
	<g>
		<path fill="#FFFFFF" d="M643.264,322.645v25.567c-17.354-7.803-31.184-11.711-41.49-11.711c-5.869,0-10.545,0.987-14.002,2.954
			c-3.471,1.967-5.206,4.577-5.206,7.823c0,2.497,1.258,4.868,3.749,7.12c2.504,2.245,8.584,5.153,18.268,8.703
			c9.684,3.564,17.42,6.875,23.222,9.935c5.816,3.06,10.823,7.365,15.036,12.923c4.213,5.557,6.332,12.585,6.332,21.076
			c0,12.115-4.61,21.759-13.817,28.939c-9.22,7.18-21.341,10.77-36.39,10.77c-16.241,0-31.979-4.213-47.213-12.638v-28.197
			c8.743,5.875,16.493,10.147,23.236,12.83c6.743,2.689,13.883,4.027,21.447,4.027c12.797,0,19.195-4.021,19.195-12.068
			c0-2.749-1.285-5.339-3.842-7.776c-2.557-2.431-8.73-5.392-18.493-8.889c-9.776-3.497-17.526-6.743-23.236-9.737
			c-5.71-3-10.638-7.279-14.797-12.837c-4.146-5.564-6.226-12.678-6.226-21.368c0-11.24,4.531-20.308,13.578-27.21
			c9.061-6.902,21.169-10.359,36.35-10.359C612.955,312.524,627.712,315.902,643.264,322.645z"/>
		<path fill="#FFFFFF" d="M732.061,445.063v-12.645c-8.187,9.558-17.712,14.327-28.574,14.327c-9.617,0-17.42-2.961-23.408-8.896
			c-6.001-5.928-8.995-14.141-8.995-24.633v-56.572h27.819v54.625c0,11.227,4.65,16.837,13.949,16.837
			c5.246,0,9.723-2.04,13.446-6.12c3.709-4.087,5.577-7.101,5.577-9.035v-56.307h28.005v88.419H732.061z"/>
		<path fill="#FFFFFF" d="M847.537,361.327v19.765c-10.611-6.491-20.454-9.743-29.502-9.743c-6.677,0-10.028,2.279-10.028,6.836
			c0,1.186,0.715,2.358,2.12,3.517c1.404,1.153,6.796,3.59,16.162,7.326c9.353,3.722,15.976,8.028,19.844,12.903
			c3.868,4.875,5.802,10.22,5.802,16.036c0,9.187-3.113,16.288-9.366,21.282c-6.239,5.001-15.142,7.498-26.693,7.498
			c-11.856,0-22.414-2.146-31.648-6.458v-19.573c11.353,4.994,20.878,7.485,28.561,7.485c8.995,0,13.486-2.173,13.486-6.531
			c0-1.682-0.835-3.272-2.49-4.769c-1.669-1.497-7.246-4.093-16.718-7.809c-9.485-3.709-15.976-7.783-19.473-12.221
			c-3.497-4.438-5.246-9.379-5.246-14.81c0-8.068,3.352-14.625,10.068-19.692c6.716-5.067,15.566-7.597,26.561-7.597
			C829.521,354.77,839.046,356.955,847.537,361.327z"/>
		<path fill="#FFFFFF" d="M935.962,356.644v19.016h-32.231v36.43c0,4.372,1.206,7.823,3.617,10.353
			c2.398,2.53,5.723,3.795,9.975,3.795c5.736,0,11.949-1.722,18.639-5.153v20.136c-8.876,3.683-17.46,5.524-25.766,5.524
			c-10.863,0-19.288-2.808-25.289-8.425c-5.988-5.617-8.982-13.863-8.982-24.733v-37.927h-12.651v-5.431l37-41.404h3.458v27.819
			H935.962z"/>
		<path fill="#FFFFFF" d="M1040.391,417.615v17.52c-10.624,7.743-23.766,11.611-39.437,11.611c-15.552,0-27.978-4.166-37.278-12.512
			c-9.3-8.346-13.949-19.394-13.949-33.145c0-13.506,4.358-24.594,13.102-33.284c8.743-8.69,19.897-13.035,33.449-13.035
			c13.605,0,24.772,4.577,33.476,13.724c8.717,9.147,12.784,21.401,12.227,36.761h-63.507c0.57,8.028,3.405,14.201,8.531,18.52
			c5.113,4.332,11.989,6.491,20.599,6.491C1018.029,430.266,1028.958,426.053,1040.391,417.615z M979.042,390.643h38.404
			c-1.51-12.863-7.909-19.295-19.208-19.295C986.819,371.349,980.407,377.78,979.042,390.643z"/>
		<path fill="#FFFFFF" d="M1091.618,356.644v12.552c8.174-9.617,17.765-14.426,28.747-14.426c9.18,0,16.85,2.941,22.997,8.809
			c6.16,5.882,9.233,14.287,9.233,25.223v56.261h-27.819v-53.93c0-11.817-4.597-17.725-13.777-17.725
			c-6.544,0-13.009,4.875-19.381,14.612v57.043h-27.819v-88.419H1091.618z"/>
	</g>
	<g>
		<path fill="#15D17F" d="M1286.135,314.213v23.978h-47.399v106.872h-32.588V338.191h-47.399v-23.978H1286.135z"/>
		<path fill="#15D17F" d="M1370.149,423.238v15.453c-9.247,5.378-17.923,8.054-26.044,8.054c-8.743,0-13.923-3.305-15.539-9.922
			c-9.684,6.617-19.394,9.922-29.131,9.922c-6.875,0-12.717-2.173-17.526-6.518c-4.809-4.345-7.207-9.392-7.207-15.155
			c0-7.683,2.477-13.896,7.445-18.612c4.968-4.729,20.003-10.81,45.107-18.255c0.623-9.863-4.504-14.797-15.367-14.797
			c-11.803,0-22.666,4.935-32.602,14.797V365.54c11.618-7.18,24.388-10.77,38.311-10.77c24.984,0,37.476,8.975,37.476,26.918v40.325
			c0,4.133,1.523,6.186,4.583,6.186C1361.962,428.199,1365.459,426.55,1370.149,423.238z M1327.254,423.589v-21.421
			c-9.313,3.259-15.698,6.186-19.156,8.783c-3.471,2.596-5.206,5.908-5.206,9.916c0,2.57,0.874,4.776,2.623,6.624
			s3.868,2.775,6.372,2.775C1317.133,430.266,1322.247,428.04,1327.254,423.589z"/>
		<path fill="#15D17F" d="M1413.891,314.213v130.85h-27.819v-130.85H1413.891z"/>
		<path fill="#15D17F" d="M1527.593,417.615v17.52c-10.624,7.743-23.766,11.611-39.437,11.611c-15.552,0-27.978-4.166-37.278-12.512
			s-13.949-19.394-13.949-33.145c0-13.506,4.358-24.594,13.102-33.284c8.743-8.69,19.897-13.035,33.449-13.035
			c13.605,0,24.772,4.577,33.476,13.724c8.717,9.147,12.784,21.401,12.227,36.761h-63.507c0.57,8.028,3.405,14.201,8.531,18.52
			c5.114,4.332,11.989,6.491,20.599,6.491C1505.231,430.266,1516.16,426.053,1527.593,417.615z M1466.245,390.643h38.404
			c-1.51-12.863-7.909-19.295-19.208-19.295C1474.021,371.349,1467.609,377.78,1466.245,390.643z"/>
		<path fill="#15D17F" d="M1578.82,356.644v12.552c8.187-9.617,17.765-14.426,28.76-14.426c9.18,0,16.837,2.941,22.997,8.809
			c6.147,5.882,9.22,14.287,9.22,25.223v56.261h-27.819v-53.93c0-11.817-4.584-17.725-13.764-17.725
			c-6.557,0-13.022,4.875-19.394,14.612v57.043H1551v-88.419H1578.82z"/>
		<path fill="#15D17F" d="M1730.183,356.644v19.016h-32.231v36.43c0,4.372,1.205,7.823,3.616,10.353
			c2.398,2.53,5.723,3.795,9.975,3.795c5.736,0,11.949-1.722,18.639-5.153v20.136c-8.876,3.683-17.46,5.524-25.766,5.524
			c-10.863,0-19.288-2.808-25.289-8.425c-5.988-5.617-8.982-13.863-8.982-24.733v-37.927h-12.651v-5.431l37-41.404h3.458v27.819
			H1730.183z"/>
	</g>
	<g>
		<path fill="#15D17F" d="M446.766,302.303L334.283,189.817L221.8,302.303c-42.643,42.641-42.643,112.023,0,154.664l112.483,112.485
			l112.483-112.485C489.409,414.326,489.409,344.944,446.766,302.303z"/>
		<path fill="#FFFFFF" d="M313.191,309.332l28.122-28.122l-14.06-14.06l-28.122,28.122c-3.882,3.882-3.882,10.177,0,14.06
			C303.013,313.215,309.308,313.215,313.191,309.332z M327.253,337.454l-35.151,35.151l14.059,14.059l35.151-35.151
			c15.506-15.502,40.736-15.506,56.242,0c15.505,15.507,15.506,40.737,0.003,56.243l-0.001-0.001l-28.122,28.122
			c-3.882,3.882-3.883,10.177,0,14.06c-3.883-3.883-10.177-3.882-14.06,0l-28.122,28.122l14.06,14.06l28.122-28.122
			c3.882-3.882,3.883-10.177,0-14.06c3.883,3.883,10.177,3.882,14.06,0l28.122-28.122c23.258-23.257,23.258-61.101-0.001-84.362
			C388.354,314.194,350.507,314.197,327.253,337.454z M341.312,421.815l35.151-35.151l-14.059-14.059l-35.151,35.15
			c-15.509,15.507-40.738,15.505-56.243,0.002c-15.504-15.506-15.504-40.736,0-56.244l28.121-28.121
			c3.882-3.882,3.883-10.177,0-14.06c-3.883-3.883-10.177-3.883-14.06,0l-28.122,28.122c-23.258,23.259-23.257,61.104,0.002,84.361
			c11.63,11.632,26.902,17.444,42.181,17.444C314.404,439.259,329.684,433.443,341.312,421.815z"/>
	</g>
</g>
</svg>
